<svg  height="50pt" viewBox="0 0 512.01364 512" width="50pt" xmlns="http://www.w3.org/2000/svg"><path d="m102.402344 273.078125c-1.597656 0-3.183594-.441406-4.582032-1.332031l-93.867187-59.730469c-2.707031-1.726563-4.214844-4.8125-3.9101562-8.003906.3085932-3.191407 2.3750002-5.941407 5.3515622-7.125l494.933594-196.269531c4.105469-1.621094 8.746094.136718 10.742187 4.054687 2.007813 3.917969.710938 8.710937-3.003906 11.074219l-401.066406 256c-1.40625.890625-3.003906 1.332031-4.597656 1.332031zm-75.1875-66.480469 75.179687 47.835938 321.226563-205.039063zm0 0"/><path d="m170.667969 435.210938c-3.394531 0-6.519531-2.03125-7.859375-5.222657l-68.265625-162.132812c-1.613281-3.820313-.230469-8.269531 3.277343-10.496094l401.066407-256c3.6875-2.34375 8.566406-1.535156 11.28125 1.894531 2.722656 3.429688 2.398437 8.363282-.734375 11.417969l-313.683594 305.210937-16.632812 108.109376c-.582032 3.773437-3.59375 6.699218-7.390626 7.167968-.359374.035156-.714843.050782-1.058593.050782zm-57.609375-167.335938 53.761718 127.683594 12.476563-81.109375c.28125-1.835938 1.152344-3.523438 2.480469-4.8125l255.867187-248.945313zm0 0"/><path d="m341.335938 409.613281c-1.433594 0-2.859376-.359375-4.148438-1.074219l-153.597656-85.335937c-2.355469-1.304687-3.960938-3.660156-4.3125-6.332031-.355469-2.667969.574218-5.359375 2.511718-7.242188l315.730469-307.203125c2.894531-2.824219 7.375-3.222656 10.738281-.945312 3.351563 2.277343 4.640626 6.578125 3.097657 10.324219l-162.136719 392.535156c-.929688 2.25-2.773438 3.992187-5.074219 4.792968-.90625.324219-1.863281.480469-2.808593.480469zm-139.425782-95.746093 135.191406 75.113281 142.710938-345.507813zm0 0"/><path d="m8.535156 375.480469c-2.183594 0-4.367187-.835938-6.03125-2.5-3.339844-3.339844-3.339844-8.730469 0-12.066407l59.730469-59.734374c3.339844-3.335938 8.730469-3.335938 12.066406 0 3.335938 3.335937 3.335938 8.730468 0 12.066406l-59.730469 59.734375c-1.664062 1.671875-3.851562 2.5-6.035156 2.5zm0 0"/><path d="m8.535156 512.011719c-2.183594 0-4.367187-.835938-6.03125-2.5-3.339844-3.335938-3.339844-8.730469 0-12.066407l17.066406-17.066406c3.335938-3.335937 8.726563-3.335937 12.066407 0 3.335937 3.335938 3.335937 8.730469 0 12.066406l-17.066407 17.066407c-1.664062 1.671875-3.851562 2.5-6.035156 2.5zm0 0"/><path d="m51.203125 469.347656c-2.183594 0-4.371094-.839844-6.035156-2.503906-3.335938-3.335938-3.335938-8.726562 0-12.0625l51.199219-51.203125c3.339843-3.335937 8.730468-3.335937 12.066406 0 3.339844 3.335937 3.339844 8.730469 0 12.066406l-51.199219 51.199219c-1.664063 1.675781-3.847656 2.503906-6.03125 2.503906zm0 0"/><path d="m179.203125 512.011719c-2.183594 0-4.371094-.835938-6.035156-2.5-3.335938-3.335938-3.335938-8.730469 0-12.066407l8.535156-8.53125c3.335937-3.339843 8.730469-3.339843 12.066406 0 3.335938 3.335938 3.335938 8.726563 0 12.066407l-8.535156 8.53125c-1.664063 1.671875-3.847656 2.5-6.03125 2.5zm0 0"/><path d="m213.335938 477.878906c-2.183594 0-4.371094-.835937-6.035157-2.5-3.335937-3.335937-3.335937-8.730468 0-12.066406l42.667969-42.667969c3.335938-3.335937 8.730469-3.335937 12.066406 0 3.335938 3.339844 3.335938 8.730469 0 12.066407l-42.667968 42.667968c-1.664063 1.671875-3.847657 2.5-6.03125 2.5zm0 0"/></svg>